{"glyphs":{"0":{"ha":610,"x_min":0,"x_max":543,"o":"m 0 678 q 271 949 0 949 q 543 678 543 949 l 543 271 q 271 0 543 0 q 0 271 0 0 l 0 678 m 271 746 q 203 678 203 746 l 203 271 q 271 203 203 203 q 339 271 339 203 l 339 678 q 271 746 339 746 z "},"1":{"ha":339,"x_min":0,"x_max":271,"o":"m 271 949 l 271 0 l 68 0 l 68 683 q 0 678 37 678 l 0 882 q 68 949 68 882 l 271 949 z "},"2":{"ha":610,"x_min":0,"x_max":543,"o":"m 271 746 q 204 678 204 746 l 1 678 q 271 949 1 949 l 272 949 q 543 678 543 949 l 543 644 q 373 383 543 461 q 203 237 203 305 l 203 203 l 543 203 l 543 0 l 0 0 l 0 237 q 170 498 0 420 q 339 644 339 576 l 339 678 q 271 746 339 746 z "},"3":{"ha":610,"x_min":0,"x_max":543,"o":"m 0 271 l 0 305 l 203 305 l 203 271 q 271 203 203 203 q 339 271 339 203 l 339 305 q 271 373 339 373 l 203 373 l 203 576 l 271 576 q 339 644 339 576 l 339 678 q 271 746 339 746 q 203 678 203 746 l 203 644 l 0 644 l 0 678 q 271 949 0 949 q 543 678 543 949 l 543 644 q 502 475 543 539 q 543 305 543 410 l 543 271 q 271 0 543 0 q 0 271 0 0 z "},"4":{"ha":678,"x_min":0,"x_max":610,"o":"m 543 949 l 543 407 l 610 407 l 610 203 l 543 203 l 543 0 l 339 0 l 339 203 l 0 203 l 0 407 l 326 949 l 543 949 m 339 407 l 339 610 l 217 407 l 339 407 z "},"5":{"ha":610,"x_min":0,"x_max":543,"o":"m 271 0 q 0 271 0 0 l 203 271 q 271 203 203 203 q 339 271 339 203 l 339 373 q 271 441 339 441 q 203 373 203 441 l 0 373 l 0 949 l 543 949 l 543 746 l 203 746 l 203 640 q 271 644 235 644 q 543 373 543 644 l 543 271 q 271 0 543 0 z "},"6":{"ha":610,"x_min":0,"x_max":543,"o":"m 271 949 q 543 678 543 949 l 339 678 q 271 746 339 746 q 203 678 203 746 l 203 640 q 271 644 235 644 q 543 373 543 644 l 543 271 q 271 0 543 0 q 0 271 0 0 l 0 678 q 271 949 0 949 m 339 373 q 271 441 339 441 q 203 373 203 441 l 203 271 q 271 203 203 203 q 339 271 339 203 l 339 373 z "},"7":{"ha":610,"x_min":0,"x_max":543,"o":"m 339 746 l 0 746 l 0 949 l 543 949 l 543 746 q 271 0 359 385 l 68 0 q 339 746 157 390 z "},"8":{"ha":610,"x_min":0,"x_max":543,"o":"m 271 576 q 339 644 339 576 l 339 678 q 271 746 339 746 q 203 678 203 746 l 203 644 q 271 576 203 576 m 203 271 q 271 203 203 203 q 339 271 339 203 l 339 305 q 271 373 339 373 q 203 305 203 373 l 203 271 m 271 0 q 0 271 0 0 l 0 305 q 41 475 0 410 q 0 644 0 539 l 0 678 q 271 949 0 949 q 543 678 543 949 l 543 644 q 502 475 543 539 q 543 305 543 410 l 543 271 q 271 0 543 0 z "},"9":{"ha":610,"x_min":0,"x_max":543,"o":"m 271 0 q 0 271 0 0 l 203 271 q 271 203 203 203 q 339 271 339 203 l 339 310 q 271 305 308 305 q 0 576 0 305 l 0 678 q 271 949 0 949 q 543 678 543 949 l 543 271 q 271 0 543 0 m 203 576 q 271 509 203 509 q 339 576 339 509 l 339 678 q 271 746 339 746 q 203 678 203 746 l 203 576 z "},"\u0000":{"ha":0,"x_min":0,"x_max":0,"o":""}," ":{"ha":345,"x_min":0,"x_max":0,"o":""},"!":{"ha":271,"x_min":0,"x_max":203,"o":"m 203 0 l 0 0 l 0 203 l 203 203 l 203 0 m 203 271 l 0 271 l 0 949 l 203 949 l 203 271 z "},"\"":{"ha":543,"x_min":0,"x_max":475,"o":"m 203 610 l 0 610 l 0 949 l 203 949 l 203 610 m 475 610 l 271 610 l 271 949 l 475 949 l 475 610 z "},"#":{"ha":678,"x_min":0,"x_max":610,"o":"m 68 407 l 68 543 l 0 543 l 0 746 l 68 746 l 68 949 l 271 949 l 271 746 l 339 746 l 339 949 l 543 949 l 543 746 l 610 746 l 610 543 l 543 543 l 543 407 l 610 407 l 610 203 l 543 203 l 543 0 l 339 0 l 339 203 l 271 203 l 271 0 l 68 0 l 68 203 l 0 203 l 0 407 l 68 407 m 271 543 l 271 407 l 339 407 l 339 543 l 271 543 z "},"$":{"ha":610,"x_min":0,"x_max":543,"o":"m 170 937 l 170 1017 l 373 1017 l 373 937 q 543 678 543 892 l 339 678 q 271 746 339 746 q 203 678 203 746 q 373 532 203 610 q 543 271 543 454 q 373 12 543 57 l 373 -68 l 170 -68 l 170 12 q 0 271 0 57 l 203 271 q 271 203 203 203 q 339 271 339 203 q 170 417 339 339 q 0 678 0 495 q 170 937 0 892 z "},"%":{"ha":1085,"x_min":0,"x_max":1017,"o":"m 220 475 q 0 712 0 475 q 220 949 0 949 q 441 712 441 949 q 220 475 441 475 m 780 237 q 797 203 780 203 q 814 237 814 203 q 797 271 814 271 q 780 237 780 271 m 797 0 q 576 237 576 0 q 797 475 576 475 q 1017 237 1017 475 q 797 0 1017 0 m 132 0 l 675 949 l 885 949 l 342 0 l 132 0 m 203 712 q 220 678 203 678 q 237 712 237 678 q 220 746 237 746 q 203 712 203 746 z "},"&":{"ha":610,"x_min":0,"x_max":543,"o":"m 339 271 l 339 305 l 543 305 l 543 271 q 373 12 543 57 l 373 -68 l 170 -68 l 170 12 q 0 271 0 57 l 0 305 q 41 475 0 410 q 0 644 0 539 l 0 678 q 170 937 0 892 l 170 1017 l 373 1017 l 373 937 q 543 678 543 892 l 543 644 l 339 644 l 339 678 q 271 746 339 746 q 203 678 203 746 l 203 644 q 271 576 203 576 l 339 576 l 339 373 l 271 373 q 203 305 203 373 l 203 271 q 271 203 203 203 q 339 271 339 203 z "},"'":{"ha":271,"x_min":0,"x_max":203,"o":"m 203 610 l 0 610 l 0 949 l 203 949 l 203 610 z "},"(":{"ha":407,"x_min":0,"x_max":339,"o":"m 271 1085 l 339 1085 l 339 882 l 271 882 q 203 814 203 882 l 203 136 q 271 68 203 68 l 339 68 l 339 -136 l 271 -136 q 0 136 0 -136 l 0 814 q 271 1085 0 1085 z "},")":{"ha":407,"x_min":0,"x_max":339,"o":"m 68 882 l 0 882 l 0 1085 l 68 1085 q 339 814 339 1085 l 339 136 q 68 -136 339 -136 l 0 -136 l 0 68 l 68 68 q 136 136 136 68 l 136 814 q 68 882 136 882 z "},"*":{"ha":639,"x_min":54,"x_max":625,"o":"m 441 502 l 441 407 l 237 407 l 237 502 l 155 454 l 54 631 l 136 678 l 54 726 l 155 902 l 237 854 l 237 949 l 441 949 l 441 854 l 523 902 l 625 726 l 543 678 l 625 631 l 523 454 l 441 502 z "},"+":{"ha":610,"x_min":0,"x_max":543,"o":"m 373 576 l 543 576 l 543 373 l 373 373 l 373 203 l 170 203 l 170 373 l 0 373 l 0 576 l 170 576 l 170 746 l 373 746 l 373 576 z "},",":{"ha":271,"x_min":0,"x_max":203,"o":"m 203 -136 l 0 -136 l 0 203 l 203 203 l 203 -136 z "},"-":{"ha":610,"x_min":0,"x_max":543,"o":"m 543 373 l 0 373 l 0 576 l 543 576 l 543 373 z "},".":{"ha":271,"x_min":0,"x_max":203,"o":"m 203 0 l 0 0 l 0 203 l 203 203 l 203 0 z "},"/":{"ha":543,"x_min":0,"x_max":475,"o":"m 203 -136 l 0 -136 l 271 1085 l 475 1085 l 203 -136 z "},":":{"ha":271,"x_min":0,"x_max":203,"o":"m 203 0 l 0 0 l 0 203 l 203 203 l 203 0 m 203 543 l 0 543 l 0 746 l 203 746 l 203 543 z "},";":{"ha":271,"x_min":0,"x_max":203,"o":"m 203 543 l 0 543 l 0 746 l 203 746 l 203 543 m 203 -136 l 0 -136 l 0 203 l 203 203 l 203 -136 z "},"<":{"ha":610,"x_min":0,"x_max":543,"o":"m 0 576 l 543 848 l 543 624 l 224 465 l 543 305 l 543 81 l 0 353 l 0 576 z "},"=":{"ha":610,"x_min":0,"x_max":543,"o":"m 543 509 l 0 509 l 0 712 l 543 712 l 543 509 m 543 237 l 0 237 l 0 441 l 543 441 l 543 237 z "},">":{"ha":610,"x_min":0,"x_max":543,"o":"m 319 465 l 0 624 l 0 848 l 543 576 l 543 353 l 0 81 l 0 305 l 319 465 z "},"?":{"ha":610,"x_min":0,"x_max":543,"o":"m 339 0 l 136 0 l 136 203 l 339 203 l 339 0 m 203 678 l 203 644 l 0 644 l 0 678 q 271 949 0 949 q 543 678 543 949 l 543 644 q 339 378 543 410 l 339 271 l 136 271 l 136 576 l 271 576 q 339 644 339 576 l 339 678 q 271 746 339 746 q 203 678 203 746 z "},"@":{"ha":1153,"x_min":0,"x_max":1085,"o":"m 543 186 q 271 458 271 186 l 271 492 q 543 763 271 763 q 814 492 814 763 l 814 458 q 848 390 814 390 q 882 458 882 390 l 882 543 q 543 882 882 882 q 203 543 203 882 l 203 407 q 543 68 203 68 l 814 68 l 814 -136 l 543 -136 q 0 407 0 -136 l 0 543 q 543 1085 0 1085 q 1085 543 1085 1085 l 1085 458 q 848 186 1085 186 q 705 223 760 186 q 543 186 642 186 m 475 458 q 543 390 475 390 q 610 458 610 390 l 610 492 q 543 559 610 559 q 475 492 475 559 l 475 458 z "},"A":{"ha":746,"x_min":-68,"x_max":610,"o":"m 382 102 l 161 102 l 136 0 l -68 0 l 170 949 l 373 949 l 610 0 l 407 0 l 382 102 m 212 305 l 331 305 l 271 543 l 212 305 z "},"B":{"ha":610,"x_min":0,"x_max":543,"o":"m 271 576 q 339 644 339 576 l 339 678 q 271 746 339 746 l 203 746 l 203 576 l 271 576 m 271 373 l 203 373 l 203 203 l 271 203 q 339 271 339 203 l 339 305 q 271 373 339 373 m 543 644 q 502 475 543 539 q 543 305 543 410 l 543 271 q 271 0 543 0 l 0 0 l 0 949 l 271 949 q 543 678 543 949 l 543 644 z "},"C":{"ha":610,"x_min":0,"x_max":543,"o":"m 543 678 l 543 610 l 339 610 l 339 678 q 271 746 339 746 q 203 678 203 746 l 203 271 q 271 203 203 203 q 339 271 339 203 l 339 339 l 543 339 l 543 271 q 271 0 543 0 q 0 271 0 0 l 0 678 q 271 949 0 949 q 543 678 543 949 z "},"D":{"ha":610,"x_min":0,"x_max":543,"o":"m 543 271 q 271 0 543 0 l 0 0 l 0 949 l 271 949 q 543 678 543 949 l 543 271 m 271 203 q 339 271 339 203 l 339 678 q 271 746 339 746 l 203 746 l 203 203 l 271 203 z "},"E":{"ha":610,"x_min":0,"x_max":543,"o":"m 543 949 l 543 746 l 203 746 l 203 576 l 475 576 l 475 373 l 203 373 l 203 203 l 543 203 l 543 0 l 0 0 l 0 949 l 543 949 z "},"F":{"ha":610,"x_min":0,"x_max":543,"o":"m 543 949 l 543 746 l 203 746 l 203 576 l 475 576 l 475 373 l 203 373 l 203 0 l 0 0 l 0 949 l 543 949 z "},"G":{"ha":610,"x_min":0,"x_max":543,"o":"m 543 678 l 543 610 l 339 610 l 339 678 q 271 746 339 746 q 203 678 203 746 l 203 271 q 271 203 203 203 q 339 271 339 203 l 339 339 l 271 339 l 271 543 l 543 543 l 543 271 q 271 0 543 0 q 0 271 0 0 l 0 678 q 271 949 0 949 q 543 678 543 949 z "},"H":{"ha":610,"x_min":0,"x_max":543,"o":"m 203 373 l 203 0 l 0 0 l 0 949 l 203 949 l 203 576 l 339 576 l 339 949 l 543 949 l 543 0 l 339 0 l 339 373 l 203 373 z "},"I":{"ha":271,"x_min":0,"x_max":203,"o":"m 203 0 l 0 0 l 0 949 l 203 949 l 203 0 z "},"J":{"ha":610,"x_min":0,"x_max":543,"o":"m 0 271 l 0 339 l 203 339 l 203 271 q 271 203 203 203 q 339 271 339 203 l 339 949 l 543 949 l 543 271 q 271 0 543 0 q 0 271 0 0 z "},"K":{"ha":678,"x_min":0,"x_max":610,"o":"m 203 309 l 203 0 l 0 0 l 0 949 l 203 949 l 203 641 l 224 677 l 380 949 l 610 949 l 339 475 l 610 0 l 380 0 l 224 273 l 203 309 z "},"L":{"ha":610,"x_min":0,"x_max":543,"o":"m 0 0 l 0 949 l 203 949 l 203 203 l 543 203 l 543 0 l 0 0 z "},"M":{"ha":746,"x_min":0,"x_max":678,"o":"m 203 502 l 203 0 l 0 0 l 0 949 l 217 949 l 339 681 l 461 949 l 678 949 l 678 0 l 475 0 l 475 502 l 339 203 l 203 502 z "},"N":{"ha":644,"x_min":0,"x_max":576,"o":"m 203 437 l 203 0 l 0 0 l 0 949 l 214 949 l 373 512 l 373 949 l 576 949 l 576 0 l 363 0 l 203 437 z "},"O":{"ha":610,"x_min":0,"x_max":543,"o":"m 0 678 q 271 949 0 949 q 543 678 543 949 l 543 271 q 271 0 543 0 q 0 271 0 0 l 0 678 m 271 746 q 203 678 203 746 l 203 271 q 271 203 203 203 q 339 271 339 203 l 339 678 q 271 746 339 746 z "},"P":{"ha":610,"x_min":0,"x_max":543,"o":"m 543 644 q 271 373 543 373 l 203 373 l 203 0 l 0 0 l 0 949 l 271 949 q 543 678 543 949 l 543 644 m 271 576 q 339 644 339 576 l 339 678 q 271 746 339 746 l 203 746 l 203 576 l 271 576 z "},"Q":{"ha":610,"x_min":0,"x_max":543,"o":"m 271 746 q 203 678 203 746 l 203 271 q 271 203 203 203 q 339 271 339 203 l 339 678 q 271 746 339 746 m 0 678 q 271 949 0 949 q 543 678 543 949 l 543 271 q 416 27 543 86 q 475 0 432 0 l 475 -203 q 208 4 237 -203 q 0 271 0 34 l 0 678 z "},"R":{"ha":644,"x_min":0,"x_max":576,"o":"m 543 644 q 455 424 543 490 l 576 0 l 373 0 l 267 373 l 203 373 l 203 0 l 0 0 l 0 949 l 271 949 q 543 678 543 949 l 543 644 m 271 576 q 339 644 339 576 l 339 678 q 271 746 339 746 l 203 746 l 203 576 l 271 576 z "},"S":{"ha":610,"x_min":0,"x_max":543,"o":"m 271 949 q 543 678 543 949 l 339 678 q 271 746 339 746 q 203 678 203 746 q 373 532 203 610 q 543 271 543 454 q 271 0 543 0 q 0 271 0 0 l 203 271 q 271 203 203 203 q 339 271 339 203 q 170 417 339 339 q 0 678 0 495 q 271 949 0 949 z "},"T":{"ha":610,"x_min":0,"x_max":543,"o":"m 373 746 l 373 0 l 170 0 l 170 746 l 0 746 l 0 949 l 543 949 l 543 746 l 373 746 z "},"U":{"ha":610,"x_min":0,"x_max":543,"o":"m 0 271 l 0 949 l 203 949 l 203 271 q 271 203 203 203 q 339 271 339 203 l 339 949 l 543 949 l 543 271 q 271 0 543 0 q 0 271 0 0 z "},"V":{"ha":746,"x_min":-68,"x_max":610,"o":"m 271 407 l 407 949 l 610 949 l 373 0 l 170 0 l -68 949 l 136 949 l 271 407 z "},"W":{"ha":1085,"x_min":-68,"x_max":949,"o":"m 136 0 l -68 949 l 136 949 l 237 475 l 339 949 l 543 949 l 644 475 l 746 949 l 949 949 l 746 0 l 543 0 l 441 475 l 339 0 l 136 0 z "},"X":{"ha":746,"x_min":-68,"x_max":610,"o":"m 163 475 l -68 949 l 149 949 l 271 698 l 393 949 l 610 949 l 380 475 l 610 0 l 393 0 l 271 252 l 149 0 l -68 0 l 163 475 z "},"Y":{"ha":746,"x_min":-68,"x_max":610,"o":"m 373 460 l 373 0 l 170 0 l 170 460 l 163 475 l -68 949 l 149 949 l 271 698 l 393 949 l 610 949 l 380 475 l 373 460 z "},"Z":{"ha":610,"x_min":0,"x_max":543,"o":"m 319 746 l 0 746 l 0 949 l 543 949 l 543 746 l 224 203 l 543 203 l 543 0 l 0 0 l 0 203 l 319 746 z "},"[":{"ha":407,"x_min":0,"x_max":339,"o":"m 0 1085 l 339 1085 l 339 882 l 203 882 l 203 68 l 339 68 l 339 -136 l 0 -136 l 0 1085 z "},"\\":{"ha":543,"x_min":0,"x_max":475,"o":"m 271 -136 l 0 1085 l 203 1085 l 475 -136 l 271 -136 z "},"]":{"ha":407,"x_min":0,"x_max":339,"o":"m 136 882 l 0 882 l 0 1085 l 339 1085 l 339 -136 l 0 -136 l 0 68 l 136 68 l 136 882 z "},"^":{"ha":610,"x_min":0,"x_max":543,"o":"m 271 543 l 203 271 l 0 271 l 170 949 l 373 949 l 543 271 l 339 271 l 271 543 z "},"_":{"ha":610,"x_min":0,"x_max":543,"o":"m 543 0 l 0 0 l 0 203 l 543 203 l 543 0 z "},"`":{"ha":373,"x_min":0,"x_max":305,"o":"m 136 1017 l 0 1221 l 203 1221 l 305 1017 l 136 1017 z "},"a":{"ha":746,"x_min":-68,"x_max":610,"o":"m 382 102 l 161 102 l 136 0 l -68 0 l 170 949 l 373 949 l 610 0 l 407 0 l 382 102 m 212 305 l 331 305 l 271 543 l 212 305 z "},"b":{"ha":610,"x_min":0,"x_max":543,"o":"m 271 576 q 339 644 339 576 l 339 678 q 271 746 339 746 l 203 746 l 203 576 l 271 576 m 271 373 l 203 373 l 203 203 l 271 203 q 339 271 339 203 l 339 305 q 271 373 339 373 m 543 644 q 502 475 543 539 q 543 305 543 410 l 543 271 q 271 0 543 0 l 0 0 l 0 949 l 271 949 q 543 678 543 949 l 543 644 z "},"c":{"ha":610,"x_min":0,"x_max":543,"o":"m 543 678 l 543 610 l 339 610 l 339 678 q 271 746 339 746 q 203 678 203 746 l 203 271 q 271 203 203 203 q 339 271 339 203 l 339 339 l 543 339 l 543 271 q 271 0 543 0 q 0 271 0 0 l 0 678 q 271 949 0 949 q 543 678 543 949 z "},"d":{"ha":610,"x_min":0,"x_max":543,"o":"m 543 271 q 271 0 543 0 l 0 0 l 0 949 l 271 949 q 543 678 543 949 l 543 271 m 271 203 q 339 271 339 203 l 339 678 q 271 746 339 746 l 203 746 l 203 203 l 271 203 z "},"e":{"ha":610,"x_min":0,"x_max":543,"o":"m 543 949 l 543 746 l 203 746 l 203 576 l 475 576 l 475 373 l 203 373 l 203 203 l 543 203 l 543 0 l 0 0 l 0 949 l 543 949 z "},"f":{"ha":610,"x_min":0,"x_max":543,"o":"m 543 949 l 543 746 l 203 746 l 203 576 l 475 576 l 475 373 l 203 373 l 203 0 l 0 0 l 0 949 l 543 949 z "},"g":{"ha":610,"x_min":0,"x_max":543,"o":"m 543 678 l 543 610 l 339 610 l 339 678 q 271 746 339 746 q 203 678 203 746 l 203 271 q 271 203 203 203 q 339 271 339 203 l 339 339 l 271 339 l 271 543 l 543 543 l 543 271 q 271 0 543 0 q 0 271 0 0 l 0 678 q 271 949 0 949 q 543 678 543 949 z "},"h":{"ha":610,"x_min":0,"x_max":543,"o":"m 203 373 l 203 0 l 0 0 l 0 949 l 203 949 l 203 576 l 339 576 l 339 949 l 543 949 l 543 0 l 339 0 l 339 373 l 203 373 z "},"i":{"ha":271,"x_min":0,"x_max":203,"o":"m 203 0 l 0 0 l 0 949 l 203 949 l 203 0 z "},"j":{"ha":610,"x_min":0,"x_max":543,"o":"m 0 271 l 0 339 l 203 339 l 203 271 q 271 203 203 203 q 339 271 339 203 l 339 949 l 543 949 l 543 271 q 271 0 543 0 q 0 271 0 0 z "},"k":{"ha":678,"x_min":0,"x_max":610,"o":"m 203 309 l 203 0 l 0 0 l 0 949 l 203 949 l 203 641 l 224 677 l 380 949 l 610 949 l 339 475 l 610 0 l 380 0 l 224 273 l 203 309 z "},"l":{"ha":610,"x_min":0,"x_max":543,"o":"m 0 0 l 0 949 l 203 949 l 203 203 l 543 203 l 543 0 l 0 0 z "},"m":{"ha":746,"x_min":0,"x_max":678,"o":"m 203 502 l 203 0 l 0 0 l 0 949 l 217 949 l 339 681 l 461 949 l 678 949 l 678 0 l 475 0 l 475 502 l 339 203 l 203 502 z "},"n":{"ha":644,"x_min":0,"x_max":576,"o":"m 203 437 l 203 0 l 0 0 l 0 949 l 214 949 l 373 512 l 373 949 l 576 949 l 576 0 l 363 0 l 203 437 z "},"o":{"ha":610,"x_min":0,"x_max":543,"o":"m 0 678 q 271 949 0 949 q 543 678 543 949 l 543 271 q 271 0 543 0 q 0 271 0 0 l 0 678 m 271 746 q 203 678 203 746 l 203 271 q 271 203 203 203 q 339 271 339 203 l 339 678 q 271 746 339 746 z "},"p":{"ha":610,"x_min":0,"x_max":543,"o":"m 543 644 q 271 373 543 373 l 203 373 l 203 0 l 0 0 l 0 949 l 271 949 q 543 678 543 949 l 543 644 m 271 576 q 339 644 339 576 l 339 678 q 271 746 339 746 l 203 746 l 203 576 l 271 576 z "},"q":{"ha":610,"x_min":0,"x_max":543,"o":"m 271 746 q 203 678 203 746 l 203 271 q 271 203 203 203 q 339 271 339 203 l 339 678 q 271 746 339 746 m 0 678 q 271 949 0 949 q 543 678 543 949 l 543 271 q 416 27 543 86 q 475 0 432 0 l 475 -203 q 208 4 237 -203 q 0 271 0 34 l 0 678 z "},"r":{"ha":644,"x_min":0,"x_max":576,"o":"m 543 644 q 455 424 543 490 l 576 0 l 373 0 l 267 373 l 203 373 l 203 0 l 0 0 l 0 949 l 271 949 q 543 678 543 949 l 543 644 m 271 576 q 339 644 339 576 l 339 678 q 271 746 339 746 l 203 746 l 203 576 l 271 576 z "},"s":{"ha":610,"x_min":0,"x_max":543,"o":"m 271 949 q 543 678 543 949 l 339 678 q 271 746 339 746 q 203 678 203 746 q 373 532 203 610 q 543 271 543 454 q 271 0 543 0 q 0 271 0 0 l 203 271 q 271 203 203 203 q 339 271 339 203 q 170 417 339 339 q 0 678 0 495 q 271 949 0 949 z "},"t":{"ha":610,"x_min":0,"x_max":543,"o":"m 373 746 l 373 0 l 170 0 l 170 746 l 0 746 l 0 949 l 543 949 l 543 746 l 373 746 z "},"u":{"ha":610,"x_min":0,"x_max":543,"o":"m 0 271 l 0 949 l 203 949 l 203 271 q 271 203 203 203 q 339 271 339 203 l 339 949 l 543 949 l 543 271 q 271 0 543 0 q 0 271 0 0 z "},"v":{"ha":746,"x_min":-68,"x_max":610,"o":"m 271 407 l 407 949 l 610 949 l 373 0 l 170 0 l -68 949 l 136 949 l 271 407 z "},"w":{"ha":1085,"x_min":-68,"x_max":949,"o":"m 136 0 l -68 949 l 136 949 l 237 475 l 339 949 l 543 949 l 644 475 l 746 949 l 949 949 l 746 0 l 543 0 l 441 475 l 339 0 l 136 0 z "},"x":{"ha":746,"x_min":-68,"x_max":610,"o":"m 163 475 l -68 949 l 149 949 l 271 698 l 393 949 l 610 949 l 380 475 l 610 0 l 393 0 l 271 252 l 149 0 l -68 0 l 163 475 z "},"y":{"ha":746,"x_min":-68,"x_max":610,"o":"m 373 460 l 373 0 l 170 0 l 170 460 l 163 475 l -68 949 l 149 949 l 271 698 l 393 949 l 610 949 l 380 475 l 373 460 z "},"z":{"ha":610,"x_min":0,"x_max":543,"o":"m 319 746 l 0 746 l 0 949 l 543 949 l 543 746 l 224 203 l 543 203 l 543 0 l 0 0 l 0 203 l 319 746 z "},"{":{"ha":543,"x_min":0,"x_max":475,"o":"m 407 1085 l 475 1085 l 475 882 l 407 882 q 339 814 339 882 l 339 644 q 298 475 339 539 q 339 305 339 410 l 339 136 q 407 68 339 68 l 475 68 l 475 -136 l 407 -136 q 136 136 136 -136 l 136 305 q 68 373 136 373 l 0 373 l 0 576 l 68 576 q 136 644 136 576 l 136 814 q 407 1085 136 1085 z "},"|":{"ha":271,"x_min":0,"x_max":203,"o":"m 203 -136 l 0 -136 l 0 1085 l 203 1085 l 203 -136 z "},"}":{"ha":543,"x_min":0,"x_max":475,"o":"m 68 882 l 0 882 l 0 1085 l 68 1085 q 339 814 339 1085 l 339 644 q 407 576 339 576 l 475 576 l 475 373 l 407 373 q 339 305 339 373 l 339 136 q 68 -136 339 -136 l 0 -136 l 0 68 l 68 68 q 136 136 136 68 l 136 305 q 176 475 136 410 q 136 644 136 539 l 136 814 q 68 882 136 882 z "},"~":{"ha":787,"x_min":0,"x_max":719,"o":"m 0 496 l 161 619 l 203 566 q 254 535 227 535 q 298 553 275 535 q 475 624 391 624 q 678 502 585 624 l 719 448 l 557 325 l 516 378 q 465 409 493 409 q 421 391 445 409 q 244 320 328 320 q 41 442 134 320 l 0 496 z "},"¡":{"ha":271,"x_min":0,"x_max":203,"o":"m 0 678 l 203 678 l 203 475 l 0 475 l 0 678 m 0 407 l 203 407 l 203 -271 l 0 -271 l 0 407 z "},"¢":{"ha":610,"x_min":0,"x_max":543,"o":"m 170 937 l 170 1017 l 373 1017 l 373 937 q 543 678 543 892 l 543 610 l 339 610 l 339 678 q 271 746 339 746 q 203 678 203 746 l 203 271 q 271 203 203 203 q 339 271 339 203 l 339 339 l 543 339 l 543 271 q 373 12 543 57 l 373 -68 l 170 -68 l 170 12 q 0 271 0 57 l 0 678 q 170 937 0 892 z "},"£":{"ha":678,"x_min":0,"x_max":610,"o":"m 610 678 l 610 610 l 407 610 l 407 678 q 339 746 407 746 q 271 678 271 746 l 271 543 l 475 543 l 475 339 l 271 339 l 271 203 l 610 203 l 610 0 l 0 0 l 0 203 l 68 203 l 68 339 l 0 339 l 0 543 l 68 543 l 68 678 q 339 949 68 949 q 610 678 610 949 z "},"¤":{"ha":787,"x_min":47,"x_max":766,"o":"m 407 543 q 339 475 339 543 q 407 407 339 407 q 475 475 475 407 q 407 543 475 543 m 294 218 l 191 115 l 47 259 l 151 362 q 136 475 136 411 q 151 587 136 538 l 47 690 l 191 834 l 294 731 q 407 746 343 746 q 519 731 471 746 l 623 834 l 766 690 l 663 587 q 678 475 678 538 q 663 362 678 411 l 766 259 l 623 115 l 519 218 q 407 203 471 203 q 294 218 343 203 z "},"¥":{"ha":746,"x_min":-68,"x_max":610,"o":"m 373 305 l 373 271 l 475 271 l 475 68 l 373 68 l 373 0 l 170 0 l 170 68 l 68 68 l 68 271 l 170 271 l 170 305 l 68 305 l 68 509 l 146 509 l -68 949 l 149 949 l 271 698 l 393 949 l 610 949 l 396 509 l 475 509 l 475 305 l 373 305 z "},"¦":{"ha":271,"x_min":0,"x_max":203,"o":"m 203 441 l 203 -136 l 0 -136 l 0 441 l 203 441 m 0 509 l 0 1085 l 203 1085 l 203 509 l 0 509 z "},"§":{"ha":610,"x_min":0,"x_max":543,"o":"m 203 475 q 271 407 203 407 q 339 475 339 407 q 271 543 339 543 q 203 475 203 543 m 271 1085 q 543 814 543 1085 l 339 814 q 271 882 339 882 q 203 814 203 882 q 271 746 203 746 q 543 475 543 746 q 502 305 543 370 q 543 136 543 241 l 542 136 q 271 -136 542 -136 l 271 -136 q 0 136 0 -135 l 203 136 q 271 68 203 68 q 338 136 338 68 l 339 136 q 271 203 339 203 q 0 475 0 203 q 41 644 0 580 q 0 814 0 709 q 271 1085 0 1085 z "},"¨":{"ha":543,"x_min":0,"x_max":475,"o":"m 203 1017 l 0 1017 l 0 1221 l 203 1221 l 203 1017 m 475 1017 l 271 1017 l 271 1221 l 475 1221 l 475 1017 z "},"©":{"ha":1153,"x_min":0,"x_max":1085,"o":"m 543 814 q 814 543 814 814 l 610 543 q 543 610 610 610 q 475 543 475 610 l 475 407 q 543 339 475 339 q 610 407 610 339 l 814 407 q 543 136 814 136 q 271 407 271 136 l 271 543 q 543 814 271 814 m 0 543 q 543 1085 0 1085 q 1085 543 1085 1085 l 1085 407 q 543 -136 1085 -136 q 0 407 0 -136 l 0 543 m 543 882 q 203 543 203 882 l 203 407 q 543 68 203 68 q 882 407 882 68 l 882 543 q 543 882 882 882 z "},"ª":{"ha":678,"x_min":-34,"x_max":576,"o":"m 349 170 l 193 170 l 170 68 l -34 68 l 170 949 l 373 949 l 576 68 l 373 68 l 349 170 m 240 373 l 302 373 l 271 509 l 240 373 z "},"«":{"ha":746,"x_min":0,"x_max":678,"o":"m 0 475 l 203 746 l 407 746 l 203 475 l 407 203 l 203 203 l 0 475 m 271 475 l 475 746 l 678 746 l 475 475 l 678 203 l 475 203 l 271 475 z "},"¬":{"ha":610,"x_min":0,"x_max":543,"o":"m 339 373 l 0 373 l 0 576 l 543 576 l 543 237 l 339 237 l 339 373 z "},"®":{"ha":1153,"x_min":0,"x_max":1085,"o":"m 543 882 q 203 543 203 882 l 203 407 q 543 68 203 68 q 778 136 694 68 l 593 136 l 539 271 l 526 271 l 526 136 l 322 136 l 322 814 l 526 814 q 797 543 797 814 q 719 330 797 397 l 792 148 q 882 407 882 233 l 882 543 q 543 882 882 882 m 526 475 q 593 543 593 475 q 526 610 593 610 l 526 475 m 0 543 q 543 1085 0 1085 q 1085 543 1085 1085 l 1085 407 q 543 -136 1085 -136 q 0 407 0 -136 l 0 543 z "},"¯":{"ha":543,"x_min":0,"x_max":475,"o":"m 475 1017 l 0 1017 l 0 1221 l 475 1221 l 475 1017 z "},"°":{"ha":610,"x_min":0,"x_max":543,"o":"m 271 407 q 0 678 0 407 q 271 949 0 949 q 543 678 543 949 q 271 407 543 407 m 203 678 q 271 610 203 610 q 339 678 339 610 q 271 746 339 746 q 203 678 203 746 z "},"±":{"ha":610,"x_min":0,"x_max":543,"o":"m 373 644 l 543 644 l 543 441 l 373 441 l 373 271 l 170 271 l 170 441 l 0 441 l 0 644 l 170 644 l 170 814 l 373 814 l 373 644 m 543 0 l 0 0 l 0 203 l 543 203 l 543 0 z "},"²":{"ha":610,"x_min":0,"x_max":543,"o":"m 271 746 q 204 678 204 746 l 1 678 q 271 949 1 949 l 272 949 q 543 678 543 949 q 373 417 543 495 q 203 271 203 339 l 543 271 l 543 68 l 0 68 l 0 271 q 170 532 0 454 q 339 678 339 610 q 271 746 339 746 z "},"³":{"ha":610,"x_min":0,"x_max":543,"o":"m 0 339 l 0 373 l 203 373 l 203 339 q 271 271 203 271 q 339 339 339 271 q 271 407 339 407 l 203 407 l 203 610 l 271 610 q 339 678 339 610 q 271 746 339 746 q 203 678 203 746 l 203 644 l 0 644 l 0 678 q 271 949 0 949 q 543 678 543 949 q 502 509 543 573 q 543 339 543 444 q 271 68 543 68 q 0 339 0 68 z "},"´":{"ha":373,"x_min":0,"x_max":305,"o":"m 170 1017 l 0 1017 l 102 1221 l 305 1221 l 170 1017 z "},"µ":{"ha":610,"x_min":0,"x_max":543,"o":"m 339 271 l 339 949 l 543 949 l 543 271 q 271 0 543 0 q 203 5 235 0 l 203 -136 l 0 -136 l 0 949 l 203 949 l 203 271 q 271 203 203 203 q 339 271 339 203 z "},"¶":{"ha":814,"x_min":0,"x_max":746,"o":"m 678 746 l 678 0 l 475 0 l 475 746 l 407 746 l 407 0 l 203 0 l 203 378 q 0 644 0 410 l 0 678 q 203 945 0 913 q 271 949 235 949 l 746 949 l 746 746 l 678 746 z "},"·":{"ha":271,"x_min":0,"x_max":203,"o":"m 203 407 l 0 407 l 0 610 l 203 610 l 203 407 z "},"¸":{"ha":339,"x_min":0,"x_max":271,"o":"m 271 0 q 0 -271 271 -271 l 0 -68 q 68 0 68 -68 l 68 68 l 271 68 l 271 0 z "},"¹":{"ha":339,"x_min":0,"x_max":271,"o":"m 271 949 l 271 68 l 68 68 l 68 683 q 0 678 37 678 l 0 882 q 68 949 68 882 l 271 949 z "},"º":{"ha":610,"x_min":0,"x_max":543,"o":"m 0 678 q 271 949 0 949 q 543 678 543 949 l 543 339 q 271 68 543 68 q 0 339 0 68 l 0 678 m 271 746 q 203 678 203 746 l 203 339 q 271 271 203 271 q 339 339 339 271 l 339 678 q 271 746 339 746 z "},"»":{"ha":746,"x_min":0,"x_max":678,"o":"m 475 475 l 271 746 l 475 746 l 678 475 l 475 203 l 271 203 l 475 475 m 203 475 l 0 746 l 203 746 l 407 475 l 203 203 l 0 203 l 203 475 z "},"¼":{"ha":1017,"x_min":0,"x_max":949,"o":"m 271 949 l 271 68 l 68 68 l 68 683 q 0 678 37 678 l 0 882 q 68 949 68 882 l 271 949 m 882 882 l 882 339 l 949 339 l 949 136 l 882 136 l 882 0 l 678 0 l 678 136 l 339 136 l 339 339 l 665 882 l 882 882 m 678 339 l 678 543 l 556 339 l 678 339 z "},"½":{"ha":949,"x_min":0,"x_max":882,"o":"m 271 949 l 271 68 l 68 68 l 68 683 q 0 678 37 678 l 0 882 q 68 949 68 882 l 271 949 m 610 678 q 543 610 543 678 l 340 610 q 610 882 340 882 l 611 882 q 882 610 882 882 q 712 349 882 427 q 543 203 543 271 l 882 203 l 882 0 l 339 0 l 339 203 q 509 465 339 387 q 678 610 678 543 q 610 678 678 678 z "},"¾":{"ha":1289,"x_min":0,"x_max":1221,"o":"m 0 339 l 0 373 l 203 373 l 203 339 q 271 271 203 271 q 339 339 339 271 q 271 407 339 407 l 203 407 l 203 610 l 271 610 q 339 678 339 610 q 271 746 339 746 q 203 678 203 746 l 203 644 l 0 644 l 0 678 q 271 949 0 949 q 543 678 543 949 q 502 509 543 573 q 543 339 543 444 q 271 68 543 68 q 0 339 0 68 m 1153 882 l 1153 339 l 1221 339 l 1221 136 l 1153 136 l 1153 0 l 949 0 l 949 136 l 610 136 l 610 339 l 936 882 l 1153 882 m 949 339 l 949 543 l 827 339 l 949 339 z "},"¿":{"ha":610,"x_min":0,"x_max":543,"o":"m 203 678 l 407 678 l 407 475 l 203 475 l 203 678 m 339 0 l 339 34 l 543 34 l 543 0 q 271 -271 543 -271 q 0 0 0 -271 l 0 34 q 203 300 0 269 l 203 407 l 407 407 l 407 102 l 271 102 q 203 34 203 102 l 203 0 q 271 -68 203 -68 q 339 0 339 -68 z "},"À":{"ha":746,"x_min":-68,"x_max":610,"o":"m 382 102 l 161 102 l 136 0 l -68 0 l 170 949 l 373 949 l 610 0 l 407 0 l 382 102 m 212 305 l 331 305 l 271 543 l 212 305 m 186 1024 l 51 1227 l 254 1227 l 356 1024 l 186 1024 z "},"Á":{"ha":746,"x_min":-68,"x_max":610,"o":"m 382 102 l 161 102 l 136 0 l -68 0 l 170 949 l 373 949 l 610 0 l 407 0 l 382 102 m 212 305 l 331 305 l 271 543 l 212 305 m 356 1024 l 186 1024 l 288 1227 l 492 1227 l 356 1024 z "},"Â":{"ha":746,"x_min":-68,"x_max":610,"o":"m 382 102 l 161 102 l 136 0 l -68 0 l 170 949 l 373 949 l 610 0 l 407 0 l 382 102 m 212 305 l 331 305 l 271 543 l 212 305 m 271 1075 l 237 1024 l 34 1024 l 170 1227 l 373 1227 l 509 1024 l 305 1024 l 271 1075 z "},"Ã":{"ha":746,"x_min":-68,"x_max":610,"o":"m 382 102 l 161 102 l 136 0 l -68 0 l 170 949 l 373 949 l 610 0 l 407 0 l 382 102 m 212 305 l 331 305 l 271 543 l 212 305 m 307 1047 q 196 1024 246 1024 q 1 1185 62 1024 l 191 1257 q 220 1234 200 1234 q 235 1237 227 1234 q 347 1260 296 1260 q 541 1099 480 1260 l 351 1027 q 323 1050 342 1050 q 307 1047 316 1050 z "},"Ä":{"ha":746,"x_min":-68,"x_max":610,"o":"m 382 102 l 161 102 l 136 0 l -68 0 l 170 949 l 373 949 l 610 0 l 407 0 l 382 102 m 212 305 l 331 305 l 271 543 l 212 305 m 237 1024 l 34 1024 l 34 1227 l 237 1227 l 237 1024 m 509 1024 l 305 1024 l 305 1227 l 509 1227 l 509 1024 z "},"Å":{"ha":746,"x_min":-68,"x_max":610,"o":"m 212 305 l 331 305 l 271 543 l 212 305 m 271 1041 q 283 1046 278 1041 q 288 1058 288 1051 q 283 1070 288 1065 q 271 1075 278 1075 q 259 1070 264 1075 q 254 1058 254 1065 q 259 1046 254 1051 q 271 1041 264 1041 m 378 926 l 610 0 l 407 0 l 382 102 l 161 102 l 136 0 l -68 0 l 164 926 q 151 938 157 932 q 102 1058 102 987 q 151 1178 102 1128 q 271 1227 201 1227 q 391 1178 342 1227 q 441 1058 441 1128 q 391 938 441 987 q 378 926 385 932 z "},"Æ":{"ha":1085,"x_min":-68,"x_max":949,"o":"m 212 305 l 407 305 l 407 746 l 322 746 l 212 305 m 407 102 l 161 102 l 136 0 l -68 0 l 170 949 l 949 949 l 949 746 l 610 746 l 610 576 l 882 576 l 882 373 l 610 373 l 610 203 l 949 203 l 949 0 l 407 0 l 407 102 z "},"Ç":{"ha":610,"x_min":0,"x_max":543,"o":"m 170 12 q 0 271 0 57 l 0 678 q 271 949 0 949 q 543 678 543 949 l 543 610 l 339 610 l 339 678 q 271 746 339 746 q 203 678 203 746 l 203 271 q 271 203 203 203 q 339 271 339 203 l 339 339 l 543 339 l 543 271 q 373 12 543 57 l 373 0 q 102 -271 373 -271 l 102 -68 q 170 0 170 -68 l 170 12 z "},"È":{"ha":610,"x_min":0,"x_max":543,"o":"m 543 949 l 543 746 l 203 746 l 203 576 l 475 576 l 475 373 l 203 373 l 203 203 l 543 203 l 543 0 l 0 0 l 0 949 l 543 949 m 203 1024 l 68 1227 l 271 1227 l 373 1024 l 203 1024 z "},"É":{"ha":610,"x_min":0,"x_max":543,"o":"m 543 949 l 543 746 l 203 746 l 203 576 l 475 576 l 475 373 l 203 373 l 203 203 l 543 203 l 543 0 l 0 0 l 0 949 l 543 949 m 339 1024 l 170 1024 l 271 1227 l 475 1227 l 339 1024 z "},"Ê":{"ha":610,"x_min":0,"x_max":543,"o":"m 543 949 l 543 746 l 203 746 l 203 576 l 475 576 l 475 373 l 203 373 l 203 203 l 543 203 l 543 0 l 0 0 l 0 949 l 543 949 m 271 1075 l 237 1024 l 34 1024 l 170 1227 l 373 1227 l 509 1024 l 305 1024 l 271 1075 z "},"Ë":{"ha":610,"x_min":0,"x_max":543,"o":"m 543 949 l 543 746 l 203 746 l 203 576 l 475 576 l 475 373 l 203 373 l 203 203 l 543 203 l 543 0 l 0 0 l 0 949 l 543 949 m 237 1024 l 34 1024 l 34 1227 l 237 1227 l 237 1024 m 509 1024 l 305 1024 l 305 1227 l 509 1227 l 509 1024 z "},"Ì":{"ha":271,"x_min":-119,"x_max":203,"o":"m 203 0 l 0 0 l 0 949 l 203 949 l 203 0 m 17 1024 l -119 1227 l 85 1227 l 186 1024 l 17 1024 z "},"Í":{"ha":271,"x_min":0,"x_max":322,"o":"m 203 0 l 0 0 l 0 949 l 203 949 l 203 0 m 186 1024 l 17 1024 l 119 1227 l 322 1227 l 186 1024 z "},"Î":{"ha":271,"x_min":-136,"x_max":339,"o":"m 203 0 l 0 0 l 0 949 l 203 949 l 203 0 m 102 1075 l 68 1024 l -136 1024 l 0 1227 l 203 1227 l 339 1024 l 136 1024 l 102 1075 z "},"Ï":{"ha":271,"x_min":-136,"x_max":339,"o":"m 203 0 l 0 0 l 0 949 l 203 949 l 203 0 m 68 1024 l -136 1024 l -136 1227 l 68 1227 l 68 1024 m 339 1024 l 136 1024 l 136 1227 l 339 1227 l 339 1024 z "},"Ð":{"ha":678,"x_min":0,"x_max":610,"o":"m 610 271 q 339 0 610 0 l 68 0 l 68 373 l 0 373 l 0 576 l 68 576 l 68 949 l 339 949 q 610 678 610 949 l 610 271 m 339 203 q 407 271 407 203 l 407 678 q 339 746 407 746 l 271 746 l 271 576 l 339 576 l 339 373 l 271 373 l 271 203 l 339 203 z "},"Ñ":{"ha":644,"x_min":0,"x_max":576,"o":"m 203 437 l 203 0 l 0 0 l 0 949 l 214 949 l 373 512 l 373 949 l 576 949 l 576 0 l 363 0 l 203 437 m 324 1047 q 213 1024 263 1024 q 18 1185 79 1024 l 208 1257 q 237 1234 217 1234 q 252 1237 243 1234 q 363 1260 313 1260 q 558 1099 497 1260 l 368 1027 q 340 1050 359 1050 q 324 1047 333 1050 z "},"Ò":{"ha":610,"x_min":0,"x_max":543,"o":"m 0 678 q 271 949 0 949 q 543 678 543 949 l 543 271 q 271 0 543 0 q 0 271 0 0 l 0 678 m 271 746 q 203 678 203 746 l 203 271 q 271 203 203 203 q 339 271 339 203 l 339 678 q 271 746 339 746 m 186 1024 l 51 1227 l 254 1227 l 356 1024 l 186 1024 z "},"Ó":{"ha":610,"x_min":0,"x_max":543,"o":"m 0 678 q 271 949 0 949 q 543 678 543 949 l 543 271 q 271 0 543 0 q 0 271 0 0 l 0 678 m 271 746 q 203 678 203 746 l 203 271 q 271 203 203 203 q 339 271 339 203 l 339 678 q 271 746 339 746 m 356 1024 l 186 1024 l 288 1227 l 492 1227 l 356 1024 z "},"Ô":{"ha":610,"x_min":0,"x_max":543,"o":"m 0 678 q 271 949 0 949 q 543 678 543 949 l 543 271 q 271 0 543 0 q 0 271 0 0 l 0 678 m 271 746 q 203 678 203 746 l 203 271 q 271 203 203 203 q 339 271 339 203 l 339 678 q 271 746 339 746 m 271 1075 l 237 1024 l 34 1024 l 170 1227 l 373 1227 l 509 1024 l 305 1024 l 271 1075 z "},"Õ":{"ha":610,"x_min":0,"x_max":543,"o":"m 0 678 q 271 949 0 949 q 543 678 543 949 l 543 271 q 271 0 543 0 q 0 271 0 0 l 0 678 m 271 746 q 203 678 203 746 l 203 271 q 271 203 203 203 q 339 271 339 203 l 339 678 q 271 746 339 746 m 307 1047 q 196 1024 246 1024 q 1 1185 62 1024 l 191 1257 q 220 1234 200 1234 q 235 1237 227 1234 q 347 1260 296 1260 q 541 1099 480 1260 l 351 1027 q 323 1050 342 1050 q 307 1047 316 1050 z "},"Ö":{"ha":610,"x_min":0,"x_max":543,"o":"m 0 678 q 271 949 0 949 q 543 678 543 949 l 543 271 q 271 0 543 0 q 0 271 0 0 l 0 678 m 271 746 q 203 678 203 746 l 203 271 q 271 203 203 203 q 339 271 339 203 l 339 678 q 271 746 339 746 m 237 1024 l 34 1024 l 34 1227 l 237 1227 l 237 1024 m 509 1024 l 305 1024 l 305 1227 l 509 1227 l 509 1024 z "},"×":{"ha":595,"x_min":7,"x_max":535,"o":"m 415 475 l 535 355 l 391 211 l 271 331 l 151 211 l 7 355 l 127 475 l 7 595 l 151 739 l 271 618 l 391 739 l 535 595 l 415 475 z "},"Ø":{"ha":746,"x_min":-68,"x_max":610,"o":"m 0 678 q 271 949 0 949 q 397 930 344 949 l 407 949 l 610 949 l 529 787 q 543 678 543 739 l 543 271 q 271 0 543 0 q 145 20 199 0 l 136 0 l -68 0 l 14 163 q 0 271 0 210 l 0 678 m 240 208 q 271 203 253 203 q 339 271 339 203 l 339 407 l 240 208 m 271 746 q 203 678 203 746 l 203 543 l 302 741 q 271 746 290 746 z "},"Ù":{"ha":610,"x_min":0,"x_max":543,"o":"m 0 271 l 0 949 l 203 949 l 203 271 q 271 203 203 203 q 339 271 339 203 l 339 949 l 543 949 l 543 271 q 271 0 543 0 q 0 271 0 0 m 186 1024 l 51 1227 l 254 1227 l 356 1024 l 186 1024 z "},"Ú":{"ha":610,"x_min":0,"x_max":543,"o":"m 0 271 l 0 949 l 203 949 l 203 271 q 271 203 203 203 q 339 271 339 203 l 339 949 l 543 949 l 543 271 q 271 0 543 0 q 0 271 0 0 m 356 1024 l 186 1024 l 288 1227 l 492 1227 l 356 1024 z "},"Û":{"ha":610,"x_min":0,"x_max":543,"o":"m 0 271 l 0 949 l 203 949 l 203 271 q 271 203 203 203 q 339 271 339 203 l 339 949 l 543 949 l 543 271 q 271 0 543 0 q 0 271 0 0 m 271 1075 l 237 1024 l 34 1024 l 170 1227 l 373 1227 l 509 1024 l 305 1024 l 271 1075 z "},"Ü":{"ha":610,"x_min":0,"x_max":543,"o":"m 0 271 l 0 949 l 203 949 l 203 271 q 271 203 203 203 q 339 271 339 203 l 339 949 l 543 949 l 543 271 q 271 0 543 0 q 0 271 0 0 m 237 1024 l 34 1024 l 34 1227 l 237 1227 l 237 1024 m 509 1024 l 305 1024 l 305 1227 l 509 1227 l 509 1024 z "},"Ý":{"ha":746,"x_min":-68,"x_max":610,"o":"m 373 460 l 373 0 l 170 0 l 170 460 l 163 475 l -68 949 l 149 949 l 271 698 l 393 949 l 610 949 l 380 475 l 373 460 m 356 1024 l 186 1024 l 288 1227 l 492 1227 l 356 1024 z "},"Þ":{"ha":610,"x_min":0,"x_max":543,"o":"m 543 458 q 271 186 543 186 l 203 186 l 203 0 l 0 0 l 0 949 l 203 949 l 203 763 l 271 763 q 543 492 543 763 l 543 458 m 271 390 q 339 458 339 390 l 339 492 q 271 559 339 559 l 203 559 l 203 390 l 271 390 z "},"ß":{"ha":610,"x_min":0,"x_max":543,"o":"m 543 271 q 271 0 543 0 l 271 203 q 339 271 339 203 l 339 305 q 271 373 339 373 l 271 576 q 339 644 339 576 l 339 678 q 271 746 339 746 q 203 678 203 746 l 203 0 l 0 0 l 0 678 q 271 949 0 949 q 543 678 543 949 l 543 644 q 502 475 543 539 q 543 305 543 410 l 543 271 z "},"à":{"ha":746,"x_min":-68,"x_max":610,"o":"m 382 102 l 161 102 l 136 0 l -68 0 l 170 949 l 373 949 l 610 0 l 407 0 l 382 102 m 212 305 l 331 305 l 271 543 l 212 305 m 186 1017 l 51 1221 l 254 1221 l 356 1017 l 186 1017 z "},"á":{"ha":746,"x_min":-68,"x_max":610,"o":"m 382 102 l 161 102 l 136 0 l -68 0 l 170 949 l 373 949 l 610 0 l 407 0 l 382 102 m 212 305 l 331 305 l 271 543 l 212 305 m 356 1017 l 186 1017 l 288 1221 l 492 1221 l 356 1017 z "},"â":{"ha":746,"x_min":-68,"x_max":610,"o":"m 382 102 l 161 102 l 136 0 l -68 0 l 170 949 l 373 949 l 610 0 l 407 0 l 382 102 m 212 305 l 331 305 l 271 543 l 212 305 m 271 1068 l 237 1017 l 34 1017 l 170 1221 l 373 1221 l 509 1017 l 305 1017 l 271 1068 z "},"ã":{"ha":746,"x_min":-68,"x_max":610,"o":"m 382 102 l 161 102 l 136 0 l -68 0 l 170 949 l 373 949 l 610 0 l 407 0 l 382 102 m 212 305 l 331 305 l 271 543 l 212 305 m 307 1040 q 196 1017 246 1017 q 1 1178 62 1017 l 191 1250 q 220 1227 200 1227 q 235 1230 227 1227 q 347 1253 296 1253 q 541 1093 480 1253 l 351 1021 q 323 1044 342 1044 q 307 1040 316 1044 z "},"ä":{"ha":746,"x_min":-68,"x_max":610,"o":"m 382 102 l 161 102 l 136 0 l -68 0 l 170 949 l 373 949 l 610 0 l 407 0 l 382 102 m 212 305 l 331 305 l 271 543 l 212 305 m 237 1017 l 34 1017 l 34 1221 l 237 1221 l 237 1017 m 509 1017 l 305 1017 l 305 1221 l 509 1221 l 509 1017 z "},"å":{"ha":746,"x_min":-68,"x_max":610,"o":"m 212 305 l 331 305 l 271 543 l 212 305 m 271 1034 q 283 1039 278 1034 q 288 1051 288 1044 q 283 1063 288 1058 q 271 1068 278 1068 q 259 1063 264 1068 q 254 1051 254 1058 q 259 1039 254 1044 q 271 1034 264 1034 m 380 921 l 610 0 l 407 0 l 382 102 l 161 102 l 136 0 l -68 0 l 162 921 q 151 931 157 926 q 102 1051 102 981 q 151 1171 102 1122 q 271 1221 201 1221 q 391 1171 342 1221 q 441 1051 441 1122 q 391 931 441 981 q 380 921 386 926 z "},"æ":{"ha":1085,"x_min":-68,"x_max":949,"o":"m 212 305 l 407 305 l 407 746 l 322 746 l 212 305 m 407 102 l 161 102 l 136 0 l -68 0 l 170 949 l 949 949 l 949 746 l 610 746 l 610 576 l 882 576 l 882 373 l 610 373 l 610 203 l 949 203 l 949 0 l 407 0 l 407 102 z "},"ç":{"ha":610,"x_min":0,"x_max":543,"o":"m 170 12 q 0 271 0 57 l 0 678 q 271 949 0 949 q 543 678 543 949 l 543 610 l 339 610 l 339 678 q 271 746 339 746 q 203 678 203 746 l 203 271 q 271 203 203 203 q 339 271 339 203 l 339 339 l 543 339 l 543 271 q 373 12 543 57 l 373 0 q 102 -271 373 -271 l 102 -68 q 170 0 170 -68 l 170 12 z "},"è":{"ha":610,"x_min":0,"x_max":543,"o":"m 543 949 l 543 746 l 203 746 l 203 576 l 475 576 l 475 373 l 203 373 l 203 203 l 543 203 l 543 0 l 0 0 l 0 949 l 543 949 m 203 1017 l 68 1221 l 271 1221 l 373 1017 l 203 1017 z "},"é":{"ha":610,"x_min":0,"x_max":543,"o":"m 543 949 l 543 746 l 203 746 l 203 576 l 475 576 l 475 373 l 203 373 l 203 203 l 543 203 l 543 0 l 0 0 l 0 949 l 543 949 m 339 1017 l 170 1017 l 271 1221 l 475 1221 l 339 1017 z "},"ê":{"ha":610,"x_min":0,"x_max":543,"o":"m 543 949 l 543 746 l 203 746 l 203 576 l 475 576 l 475 373 l 203 373 l 203 203 l 543 203 l 543 0 l 0 0 l 0 949 l 543 949 m 271 1068 l 237 1017 l 34 1017 l 170 1221 l 373 1221 l 509 1017 l 305 1017 l 271 1068 z "},"ë":{"ha":610,"x_min":0,"x_max":543,"o":"m 543 949 l 543 746 l 203 746 l 203 576 l 475 576 l 475 373 l 203 373 l 203 203 l 543 203 l 543 0 l 0 0 l 0 949 l 543 949 m 237 1017 l 34 1017 l 34 1221 l 237 1221 l 237 1017 m 509 1017 l 305 1017 l 305 1221 l 509 1221 l 509 1017 z "},"ì":{"ha":271,"x_min":-119,"x_max":203,"o":"m 203 0 l 0 0 l 0 949 l 203 949 l 203 0 m 17 1017 l -119 1221 l 85 1221 l 186 1017 l 17 1017 z "},"í":{"ha":271,"x_min":0,"x_max":322,"o":"m 203 0 l 0 0 l 0 949 l 203 949 l 203 0 m 186 1017 l 17 1017 l 119 1221 l 322 1221 l 186 1017 z "},"î":{"ha":271,"x_min":-136,"x_max":339,"o":"m 203 0 l 0 0 l 0 949 l 203 949 l 203 0 m 102 1068 l 68 1017 l -136 1017 l 0 1221 l 203 1221 l 339 1017 l 136 1017 l 102 1068 z "},"ï":{"ha":271,"x_min":-136,"x_max":339,"o":"m 203 0 l 0 0 l 0 949 l 203 949 l 203 0 m 68 1017 l -136 1017 l -136 1221 l 68 1221 l 68 1017 m 339 1017 l 136 1017 l 136 1221 l 339 1221 l 339 1017 z "},"ð":{"ha":678,"x_min":0,"x_max":610,"o":"m 610 271 q 339 0 610 0 l 68 0 l 68 373 l 0 373 l 0 576 l 68 576 l 68 949 l 339 949 q 610 678 610 949 l 610 271 m 339 203 q 407 271 407 203 l 407 678 q 339 746 407 746 l 271 746 l 271 576 l 339 576 l 339 373 l 271 373 l 271 203 l 339 203 z "},"ñ":{"ha":644,"x_min":0,"x_max":576,"o":"m 203 437 l 203 0 l 0 0 l 0 949 l 214 949 l 373 512 l 373 949 l 576 949 l 576 0 l 363 0 l 203 437 m 324 1040 q 213 1017 263 1017 q 18 1178 79 1017 l 208 1250 q 237 1227 217 1227 q 252 1230 243 1227 q 363 1253 313 1253 q 558 1093 497 1253 l 368 1021 q 340 1044 359 1044 q 324 1040 333 1044 z "},"ò":{"ha":610,"x_min":0,"x_max":543,"o":"m 0 678 q 271 949 0 949 q 543 678 543 949 l 543 271 q 271 0 543 0 q 0 271 0 0 l 0 678 m 271 746 q 203 678 203 746 l 203 271 q 271 203 203 203 q 339 271 339 203 l 339 678 q 271 746 339 746 m 186 1017 l 51 1221 l 254 1221 l 356 1017 l 186 1017 z "},"ó":{"ha":610,"x_min":0,"x_max":543,"o":"m 0 678 q 271 949 0 949 q 543 678 543 949 l 543 271 q 271 0 543 0 q 0 271 0 0 l 0 678 m 271 746 q 203 678 203 746 l 203 271 q 271 203 203 203 q 339 271 339 203 l 339 678 q 271 746 339 746 m 356 1017 l 186 1017 l 288 1221 l 492 1221 l 356 1017 z "},"ô":{"ha":610,"x_min":0,"x_max":543,"o":"m 0 678 q 271 949 0 949 q 543 678 543 949 l 543 271 q 271 0 543 0 q 0 271 0 0 l 0 678 m 271 746 q 203 678 203 746 l 203 271 q 271 203 203 203 q 339 271 339 203 l 339 678 q 271 746 339 746 m 271 1068 l 237 1017 l 34 1017 l 170 1221 l 373 1221 l 509 1017 l 305 1017 l 271 1068 z "},"õ":{"ha":610,"x_min":0,"x_max":543,"o":"m 0 678 q 271 949 0 949 q 543 678 543 949 l 543 271 q 271 0 543 0 q 0 271 0 0 l 0 678 m 271 746 q 203 678 203 746 l 203 271 q 271 203 203 203 q 339 271 339 203 l 339 678 q 271 746 339 746 m 307 1040 q 196 1017 246 1017 q 1 1178 62 1017 l 191 1250 q 220 1227 200 1227 q 235 1230 227 1227 q 347 1253 296 1253 q 541 1093 480 1253 l 351 1021 q 323 1044 342 1044 q 307 1040 316 1044 z "},"ö":{"ha":610,"x_min":0,"x_max":543,"o":"m 0 678 q 271 949 0 949 q 543 678 543 949 l 543 271 q 271 0 543 0 q 0 271 0 0 l 0 678 m 271 746 q 203 678 203 746 l 203 271 q 271 203 203 203 q 339 271 339 203 l 339 678 q 271 746 339 746 m 237 1017 l 34 1017 l 34 1221 l 237 1221 l 237 1017 m 509 1017 l 305 1017 l 305 1221 l 509 1221 l 509 1017 z "},"÷":{"ha":610,"x_min":0,"x_max":543,"o":"m 543 373 l 0 373 l 0 576 l 543 576 l 543 373 m 373 610 l 170 610 l 170 814 l 373 814 l 373 610 m 373 136 l 170 136 l 170 339 l 373 339 l 373 136 z "},"ø":{"ha":746,"x_min":-68,"x_max":610,"o":"m 0 678 q 271 949 0 949 q 397 930 344 949 l 407 949 l 610 949 l 529 787 q 543 678 543 739 l 543 271 q 271 0 543 0 q 145 20 199 0 l 136 0 l -68 0 l 14 163 q 0 271 0 210 l 0 678 m 240 208 q 271 203 253 203 q 339 271 339 203 l 339 407 l 240 208 m 271 746 q 203 678 203 746 l 203 543 l 302 741 q 271 746 290 746 z "},"ù":{"ha":610,"x_min":0,"x_max":543,"o":"m 0 271 l 0 949 l 203 949 l 203 271 q 271 203 203 203 q 339 271 339 203 l 339 949 l 543 949 l 543 271 q 271 0 543 0 q 0 271 0 0 m 186 1017 l 51 1221 l 254 1221 l 356 1017 l 186 1017 z "},"ú":{"ha":610,"x_min":0,"x_max":543,"o":"m 0 271 l 0 949 l 203 949 l 203 271 q 271 203 203 203 q 339 271 339 203 l 339 949 l 543 949 l 543 271 q 271 0 543 0 q 0 271 0 0 m 356 1017 l 186 1017 l 288 1221 l 492 1221 l 356 1017 z "},"û":{"ha":610,"x_min":0,"x_max":543,"o":"m 0 271 l 0 949 l 203 949 l 203 271 q 271 203 203 203 q 339 271 339 203 l 339 949 l 543 949 l 543 271 q 271 0 543 0 q 0 271 0 0 m 271 1068 l 237 1017 l 34 1017 l 170 1221 l 373 1221 l 509 1017 l 305 1017 l 271 1068 z "},"ü":{"ha":610,"x_min":0,"x_max":543,"o":"m 0 271 l 0 949 l 203 949 l 203 271 q 271 203 203 203 q 339 271 339 203 l 339 949 l 543 949 l 543 271 q 271 0 543 0 q 0 271 0 0 m 237 1017 l 34 1017 l 34 1221 l 237 1221 l 237 1017 m 509 1017 l 305 1017 l 305 1221 l 509 1221 l 509 1017 z "},"ý":{"ha":746,"x_min":-68,"x_max":610,"o":"m 373 460 l 373 0 l 170 0 l 170 460 l 163 475 l -68 949 l 149 949 l 271 698 l 393 949 l 610 949 l 380 475 l 373 460 m 356 1017 l 186 1017 l 288 1221 l 492 1221 l 356 1017 z "},"þ":{"ha":610,"x_min":0,"x_max":543,"o":"m 543 458 q 271 186 543 186 l 203 186 l 203 0 l 0 0 l 0 949 l 203 949 l 203 763 l 271 763 q 543 492 543 763 l 543 458 m 271 390 q 339 458 339 390 l 339 492 q 271 559 339 559 l 203 559 l 203 390 l 271 390 z "},"ÿ":{"ha":746,"x_min":-68,"x_max":610,"o":"m 373 460 l 373 0 l 170 0 l 170 460 l 163 475 l -68 949 l 149 949 l 271 698 l 393 949 l 610 949 l 380 475 l 373 460 m 237 1017 l 34 1017 l 34 1221 l 237 1221 l 237 1017 m 509 1017 l 305 1017 l 305 1221 l 509 1221 l 509 1017 z "},"ı":{"ha":271,"x_min":0,"x_max":203,"o":"m 203 0 l 0 0 l 0 949 l 203 949 l 203 0 z "},"ˆ":{"ha":543,"x_min":0,"x_max":475,"o":"m 237 1068 l 203 1017 l 0 1017 l 136 1221 l 339 1221 l 475 1017 l 271 1017 l 237 1068 z "},"ˇ":{"ha":543,"x_min":0,"x_max":475,"o":"m 237 1170 l 271 1221 l 475 1221 l 339 1017 l 136 1017 l 0 1221 l 203 1221 l 237 1170 z "},"ˉ":{"ha":543,"x_min":0,"x_max":475,"o":"m 475 1017 l 0 1017 l 0 1221 l 475 1221 l 475 1017 z "},"˘":{"ha":610,"x_min":0,"x_max":543,"o":"m 0 1289 l 203 1289 q 270 1221 203 1221 l 271 1221 q 339 1289 339 1221 l 543 1289 q 271 1017 543 1017 q 0 1289 0 1017 z "},"˙":{"ha":271,"x_min":0,"x_max":203,"o":"m 203 1017 l 0 1017 l 0 1221 l 203 1221 l 203 1017 z "},"˚":{"ha":407,"x_min":0,"x_max":339,"o":"m 170 949 q 50 999 99 949 q 0 1119 0 1048 q 50 1239 0 1190 q 170 1289 99 1289 q 290 1239 240 1289 q 339 1119 339 1190 q 290 999 339 1048 q 170 949 240 949 m 170 1102 q 181 1107 176 1102 q 186 1119 186 1112 q 181 1131 186 1126 q 170 1136 176 1136 q 158 1131 163 1136 q 153 1119 153 1126 q 158 1107 153 1112 q 170 1102 163 1102 z "},"˜":{"ha":608,"x_min":0,"x_max":540,"o":"m 306 1040 q 195 1017 245 1017 q 0 1178 61 1017 l 190 1250 q 218 1227 199 1227 q 234 1230 225 1227 q 345 1253 295 1253 q 540 1093 479 1253 l 350 1021 q 321 1044 341 1044 q 306 1040 315 1044 z "},"–":{"ha":746,"x_min":0,"x_max":678,"o":"m 678 373 l 0 373 l 0 576 l 678 576 l 678 373 z "},"—":{"ha":882,"x_min":0,"x_max":814,"o":"m 814 373 l 0 373 l 0 576 l 814 576 l 814 373 z "},"‘":{"ha":271,"x_min":0,"x_max":203,"o":"m 203 610 l 0 610 l 0 949 l 203 949 l 203 610 z "},"’":{"ha":271,"x_min":0,"x_max":203,"o":"m 203 610 l 0 610 l 0 949 l 203 949 l 203 610 z "},"‚":{"ha":271,"x_min":0,"x_max":203,"o":"m 203 -136 l 0 -136 l 0 203 l 203 203 l 203 -136 z "},"“":{"ha":543,"x_min":0,"x_max":475,"o":"m 203 610 l 0 610 l 0 949 l 203 949 l 203 610 m 475 610 l 271 610 l 271 949 l 475 949 l 475 610 z "},"”":{"ha":543,"x_min":0,"x_max":475,"o":"m 203 610 l 0 610 l 0 949 l 203 949 l 203 610 m 475 610 l 271 610 l 271 949 l 475 949 l 475 610 z "},"„":{"ha":543,"x_min":0,"x_max":475,"o":"m 203 -136 l 0 -136 l 0 203 l 203 203 l 203 -136 m 475 -136 l 271 -136 l 271 203 l 475 203 l 475 -136 z "},"†":{"ha":610,"x_min":0,"x_max":543,"o":"m 373 644 l 373 -136 l 170 -136 l 170 644 l 0 644 l 0 848 l 170 848 l 170 1085 l 373 1085 l 373 848 l 543 848 l 543 644 l 373 644 z "},"‡":{"ha":610,"x_min":0,"x_max":543,"o":"m 373 848 l 543 848 l 543 644 l 373 644 l 373 305 l 543 305 l 543 102 l 373 102 l 373 -136 l 170 -136 l 170 102 l 0 102 l 0 305 l 170 305 l 170 644 l 0 644 l 0 848 l 170 848 l 170 1085 l 373 1085 l 373 848 z "},"•":{"ha":475,"x_min":0,"x_max":407,"o":"m 203 271 q 60 331 119 271 q 0 475 0 391 q 60 618 0 559 q 203 678 119 678 q 347 618 288 678 q 407 475 407 559 q 347 331 407 391 q 203 271 288 271 z "},"…":{"ha":814,"x_min":0,"x_max":746,"o":"m 203 0 l 0 0 l 0 203 l 203 203 l 203 0 m 475 0 l 271 0 l 271 203 l 475 203 l 475 0 m 746 0 l 543 0 l 543 203 l 746 203 l 746 0 z "},"‹":{"ha":475,"x_min":0,"x_max":407,"o":"m 0 475 l 203 746 l 407 746 l 203 475 l 407 203 l 203 203 l 0 475 z "},"›":{"ha":475,"x_min":0,"x_max":407,"o":"m 203 475 l 0 746 l 203 746 l 407 475 l 203 203 l 0 203 l 203 475 z "},"⁄":{"ha":1221,"x_min":-475,"x_max":678,"o":"m -475 0 l 441 949 l 678 949 l -237 0 l -475 0 z "},"€":{"ha":678,"x_min":0,"x_max":610,"o":"m 339 949 q 610 678 610 949 l 407 678 q 339 746 407 746 q 271 678 271 746 l 271 627 l 475 627 l 475 492 l 271 492 l 271 457 l 475 457 l 475 321 l 271 321 l 271 271 q 339 203 271 203 q 407 271 407 203 l 610 271 q 339 0 610 0 q 68 271 68 0 l 68 321 l 0 321 l 0 457 l 68 457 l 68 492 l 0 492 l 0 627 l 68 627 l 68 678 q 339 949 68 949 z "},"™":{"ha":1289,"x_min":0,"x_max":1221,"o":"m 373 746 l 373 136 l 170 136 l 170 746 l 0 746 l 0 949 l 760 949 l 882 681 l 1004 949 l 1221 949 l 1221 136 l 1017 136 l 1017 502 l 882 203 l 746 502 l 746 136 l 543 136 l 543 746 l 373 746 z "},"−":{"ha":610,"x_min":0,"x_max":543,"o":"m 543 373 l 0 373 l 0 576 l 543 576 l 543 373 z "},"⁴":{"ha":678,"x_min":0,"x_max":610,"o":"m 543 949 l 543 407 l 610 407 l 610 203 l 543 203 l 543 68 l 339 68 l 339 203 l 0 203 l 0 407 l 326 949 l 543 949 m 339 407 l 339 610 l 217 407 l 339 407 z "},"‰":{"ha":1560,"x_min":0,"x_max":1492,"o":"m 220 475 q 0 712 0 475 q 220 949 0 949 q 441 712 441 949 q 220 475 441 475 m 1255 237 q 1272 203 1255 203 q 1289 237 1289 203 q 1272 271 1289 271 q 1255 237 1255 271 m 1272 0 q 1051 237 1051 0 q 1272 475 1051 475 q 1492 237 1492 475 q 1272 0 1492 0 m 780 237 q 797 203 780 203 q 814 237 814 203 q 797 271 814 271 q 780 237 780 271 m 797 0 q 576 237 576 0 q 797 475 576 475 q 1017 237 1017 475 q 797 0 1017 0 m 132 0 l 675 949 l 885 949 l 342 0 l 132 0 m 203 712 q 220 678 203 678 q 237 712 237 678 q 220 746 237 746 q 203 712 203 746 z "},"Œ":{"ha":949,"x_min":0,"x_max":882,"o":"m 0 678 q 271 949 0 949 q 339 945 308 949 l 339 949 l 882 949 l 882 746 l 543 746 l 543 576 l 814 576 l 814 373 l 543 373 l 543 203 l 882 203 l 882 0 l 339 0 l 339 5 q 271 0 308 0 q 0 271 0 0 l 0 678 m 271 746 q 203 678 203 746 l 203 271 q 271 203 203 203 q 339 271 339 203 l 339 678 q 271 746 339 746 z "},"œ":{"ha":949,"x_min":0,"x_max":882,"o":"m 0 678 q 271 949 0 949 q 339 945 308 949 l 339 949 l 882 949 l 882 746 l 543 746 l 543 576 l 814 576 l 814 373 l 543 373 l 543 203 l 882 203 l 882 0 l 339 0 l 339 5 q 271 0 308 0 q 0 271 0 0 l 0 678 m 271 746 q 203 678 203 746 l 203 271 q 271 203 203 203 q 339 271 339 203 l 339 678 q 271 746 339 746 z "},"Ÿ":{"ha":746,"x_min":-68,"x_max":610,"o":"m 373 460 l 373 0 l 170 0 l 170 460 l 163 475 l -68 949 l 149 949 l 271 698 l 393 949 l 610 949 l 380 475 l 373 460 m 237 1024 l 34 1024 l 34 1227 l 237 1227 l 237 1024 m 509 1024 l 305 1024 l 305 1227 l 509 1227 l 509 1024 z "}}}
